{
  "accessors": [
    {
      "bufferView": 1,
      "componentType": 5126,
      "count": 2258,
      "max": [
        0.13630202412605286,
        -0.0027552945539355278,
        0.04065270721912384
      ],
      "min": [
        -0.040663361549377441,
        -0.072402365505695343,
        -0.040774788707494736
      ],
      "type": "VEC3"
    },
    {
      "bufferView": 1,
      "byteOffset": 27096,
      "componentType": 5126,
      "count": 2258,
      "max": [
        0.99934375286102295,
        0.99999034404754639,
        0.9999079704284668
      ],
      "min": [
        -0.99914443492889404,
        -0.99998354911804199,
        -0.99915134906768799
      ],
      "type": "VEC3"
    },
    {
      "bufferView": 0,
      "componentType": 5125,
      "count": 13248,
      "max": [
        2257
      ],
      "min": [
        0
      ],
      "type": "SCALAR"
    }
  ],
  "asset": {
    "extras": {
      "author": "Helindu (https://sketchfab.com/Helindu)",
      "license": "CC-BY-4.0 (http://creativecommons.org/licenses/by/4.0/)",
      "source": "https://sketchfab.com/3d-models/door-handle-b17802a127954b868a1250f55597142d",
      "title": "Door Handle"
    },
    "generator": "Sketchfab-7.74.0",
    "version": "2.0"
  },
  "bufferViews": [
    {
      "buffer": 0,
      "byteLength": 52992,
      "byteOffset": 0,
      "name": "floatBufferViews",
      "target": 34963
    },
    {
      "buffer": 0,
      "byteLength": 54192,
      "byteOffset": 52992,
      "byteStride": 12,
      "name": "floatBufferViews",
      "target": 34962
    }
  ],
  "buffers": [
    {
      "byteLength": 107184,
      "uri": "scene.bin"
    }
  ],
  "materials": [
    {
      "doubleSided": true,
      "emissiveFactor": [
        0,
        0,
        0
      ],
      "name": "Handle_material.001",
      "pbrMetallicRoughness": {
        "baseColorFactor": [
          0.60137195121951226,
          0.60137195121951226,
          0.60137195121951226,
          1
        ],
        "metallicFactor": 1,
        "roughnessFactor": 0.27267530487804881
      }
    }
  ],
  "meshes": [
    {
      "name": "door handle_Handle_material.001_0",
      "primitives": [
        {
          "attributes": {
            "NORMAL": 1,
            "POSITION": 0
          },
          "indices": 2,
          "material": 0,
          "mode": 4
        }
      ]
    }
  ],
  "nodes": [
    {
      "children": [
        1
      ],
      "name": "RootNode (gltf orientation matrix)",
      "rotation": [
        -0.70710678118654746,
        -0,
        -0,
        0.70710678118654757
      ]
    },
    {
      "children": [
        2
      ],
      "name": "RootNode (model correction matrix)"
    },
    {
      "children": [
        3
      ],
      "matrix": [
        1,
        0,
        0,
        0,
        0,
        0,
        1,
        0,
        0,
        -1,
        0,
        0,
        0,
        0,
        0,
        1
      ],
      "name": "1ca3895fee1f4f84af649c5825b4b2f7.fbx"
    },
    {
      "children": [
        4
      ],
      "name": "RootNode"
    },
    {
      "children": [
        5
      ],
      "matrix": [
        595.6170654296875,
        0,
        0,
        0,
        -0,
        -9.7038336957173591e-05,
        -595.61706542967966,
        0,
        0,
        595.61706542967966,
        -9.7038336957173591e-05,
        0,
        -1.3218522071838379,
        0,
        -0.5,
        1
      ],
      "name": "door handle"
    },
    {
      "mesh": 0,
      "name": "door handle_Handle_material.001_0"
    }
  ],
  "scene": 0,
  "scenes": [
    {
      "name": "OSG_Scene",
      "nodes": [
        0
      ]
    }
  ]
}

