{
  "accessors": [
    {
      "bufferView": 2,
      "componentType": 5126,
      "count": 890,
      "max": [
        0.18592999875545502,
        0.10109999775886536,
        0.26767998933792114
      ],
      "min": [
        -0.18042999505996704,
        -0.21310000121593475,
        -0.38183000683784485
      ],
      "type": "VEC3"
    },
    {
      "bufferView": 2,
      "byteOffset": 10680,
      "componentType": 5126,
      "count": 890,
      "max": [
        1,
        0.98389971256256104,
        1
      ],
      "min": [
        -1,
        -0.98389971256256104,
        -1
      ],
      "type": "VEC3"
    },
    {
      "bufferView": 1,
      "componentType": 5126,
      "count": 890,
      "max": [
        0.99646997451782227,
        0.99273002147674561
      ],
      "min": [
        0,
        0
      ],
      "type": "VEC2"
    },
    {
      "bufferView": 0,
      "componentType": 5125,
      "count": 3597,
      "max": [
        889
      ],
      "min": [
        0
      ],
      "type": "SCALAR"
    },
    {
      "bufferView": 2,
      "byteOffset": 21360,
      "componentType": 5126,
      "count": 40,
      "max": [
        0.35475000739097595,
        0.25957000255584717,
        0.095550000667572021
      ],
      "min": [
        -0.35475000739097595,
        -0.22648000717163086,
        -0.095550000667572021
      ],
      "type": "VEC3"
    },
    {
      "bufferView": 2,
      "byteOffset": 21840,
      "componentType": 5126,
      "count": 40,
      "max": [
        0.73984891176223755,
        0.63394582271575928,
        0.78288424015045166
      ],
      "min": [
        -0.73984891176223755,
        -0.73218667507171631,
        -0.78288424015045166
      ],
      "type": "VEC3"
    },
    {
      "bufferView": 0,
      "byteOffset": 14388,
      "componentType": 5125,
      "count": 216,
      "max": [
        39
      ],
      "min": [
        0
      ],
      "type": "SCALAR"
    },
    {
      "bufferView": 2,
      "byteOffset": 22320,
      "componentType": 5126,
      "count": 426,
      "max": [
        0.70023000240325928,
        0.70126998424530029,
        0.33794999122619629
      ],
      "min": [
        -0.69870001077651978,
        -0.69766002893447876,
        0.073530003428459167
      ],
      "type": "VEC3"
    },
    {
      "bufferView": 2,
      "byteOffset": 27432,
      "componentType": 5126,
      "count": 426,
      "max": [
        1,
        1,
        1
      ],
      "min": [
        -1,
        -1,
        -0
      ],
      "type": "VEC3"
    },
    {
      "bufferView": 1,
      "byteOffset": 7120,
      "componentType": 5126,
      "count": 426,
      "max": [
        1,
        1
      ],
      "min": [
        0,
        0
      ],
      "type": "VEC2"
    },
    {
      "bufferView": 0,
      "byteOffset": 15252,
      "componentType": 5125,
      "count": 1629,
      "max": [
        425
      ],
      "min": [
        0
      ],
      "type": "SCALAR"
    },
    {
      "bufferView": 2,
      "byteOffset": 32544,
      "componentType": 5126,
      "count": 2178,
      "max": [
        5.0688900947570801,
        3.0842299461364746,
        5.7982001304626465
      ],
      "min": [
        -5.0688900947570801,
        -1.8528100252151489,
        0.57485002279281616
      ],
      "type": "VEC3"
    },
    {
      "bufferView": 2,
      "byteOffset": 58680,
      "componentType": 5126,
      "count": 2178,
      "max": [
        1,
        1,
        1
      ],
      "min": [
        -1,
        -1,
        -1
      ],
      "type": "VEC3"
    },
    {
      "bufferView": 1,
      "byteOffset": 10528,
      "componentType": 5126,
      "count": 2178,
      "max": [
        1,
        1
      ],
      "min": [
        0,
        0
      ],
      "type": "VEC2"
    },
    {
      "bufferView": 0,
      "byteOffset": 21768,
      "componentType": 5125,
      "count": 7536,
      "max": [
        2177
      ],
      "min": [
        0
      ],
      "type": "SCALAR"
    },
    {
      "bufferView": 2,
      "byteOffset": 84816,
      "componentType": 5126,
      "count": 1091,
      "max": [
        1,
        7.9713001251220703,
        2.6806199550628662
      ],
      "min": [
        -1,
        -7.9713001251220703,
        -0.9885600209236145
      ],
      "type": "VEC3"
    },
    {
      "bufferView": 2,
      "byteOffset": 97908,
      "componentType": 5126,
      "count": 1091,
      "max": [
        1,
        1,
        1
      ],
      "min": [
        -1,
        -1,
        -1
      ],
      "type": "VEC3"
    },
    {
      "bufferView": 1,
      "byteOffset": 27952,
      "componentType": 5126,
      "count": 1091,
      "max": [
        1,
        1
      ],
      "min": [
        0,
        0
      ],
      "type": "VEC2"
    },
    {
      "bufferView": 0,
      "byteOffset": 51912,
      "componentType": 5125,
      "count": 3984,
      "max": [
        1090
      ],
      "min": [
        0
      ],
      "type": "SCALAR"
    },
    {
      "bufferView": 2,
      "byteOffset": 111000,
      "componentType": 5126,
      "count": 802,
      "max": [
        4.8426699638366699,
        1,
        15.424469947814941
      ],
      "min": [
        -1,
        -1,
        0
      ],
      "type": "VEC3"
    },
    {
      "bufferView": 2,
      "byteOffset": 120624,
      "componentType": 5126,
      "count": 802,
      "max": [
        0.99985092878341675,
        0.99985092878341675,
        0.96995270252227783
      ],
      "min": [
        -0.99985092878341675,
        -0.99985092878341675,
        -0.96995270252227783
      ],
      "type": "VEC3"
    },
    {
      "bufferView": 1,
      "byteOffset": 36680,
      "componentType": 5126,
      "count": 802,
      "max": [
        1,
        1
      ],
      "min": [
        0,
        0
      ],
      "type": "VEC2"
    },
    {
      "bufferView": 0,
      "byteOffset": 67848,
      "componentType": 5125,
      "count": 3564,
      "max": [
        801
      ],
      "min": [
        0
      ],
      "type": "SCALAR"
    },
    {
      "bufferView": 2,
      "byteOffset": 130248,
      "componentType": 5126,
      "count": 733,
      "max": [
        5.0099000930786133,
        0,
        1.1874699592590332
      ],
      "min": [
        -1,
        -4.4171299934387207,
        -1.1874699592590332
      ],
      "type": "VEC3"
    },
    {
      "bufferView": 2,
      "byteOffset": 139044,
      "componentType": 5126,
      "count": 733,
      "max": [
        1,
        0.72651416063308716,
        1
      ],
      "min": [
        -1,
        -0.98078286647796631,
        -1
      ],
      "type": "VEC3"
    },
    {
      "bufferView": 1,
      "byteOffset": 43096,
      "componentType": 5126,
      "count": 733,
      "max": [
        1,
        1
      ],
      "min": [
        0,
        0
      ],
      "type": "VEC2"
    },
    {
      "bufferView": 0,
      "byteOffset": 82104,
      "componentType": 5125,
      "count": 2895,
      "max": [
        732
      ],
      "min": [
        0
      ],
      "type": "SCALAR"
    },
    {
      "bufferView": 2,
      "byteOffset": 147840,
      "componentType": 5126,
      "count": 753,
      "max": [
        1,
        1,
        -0
      ],
      "min": [
        -3.1276099681854248,
        -1,
        -14.53242015838623
      ],
      "type": "VEC3"
    },
    {
      "bufferView": 2,
      "byteOffset": 156876,
      "componentType": 5126,
      "count": 753,
      "max": [
        1,
        0.99999600648880005,
        0.99949884414672852
      ],
      "min": [
        -0.99977952241897583,
        -0.99999898672103882,
        -0.99914747476577759
      ],
      "type": "VEC3"
    },
    {
      "bufferView": 1,
      "byteOffset": 48960,
      "componentType": 5126,
      "count": 753,
      "max": [
        1,
        1
      ],
      "min": [
        0,
        0
      ],
      "type": "VEC2"
    },
    {
      "bufferView": 0,
      "byteOffset": 93684,
      "componentType": 5125,
      "count": 2640,
      "max": [
        752
      ],
      "min": [
        0
      ],
      "type": "SCALAR"
    },
    {
      "bufferView": 2,
      "byteOffset": 165912,
      "componentType": 5126,
      "count": 497,
      "max": [
        4.8292198181152344,
        0,
        1
      ],
      "min": [
        -1,
        -5.9004502296447754,
        -1
      ],
      "type": "VEC3"
    },
    {
      "bufferView": 2,
      "byteOffset": 171876,
      "componentType": 5126,
      "count": 497,
      "max": [
        1,
        1,
        1
      ],
      "min": [
        -1,
        -1,
        -1
      ],
      "type": "VEC3"
    },
    {
      "bufferView": 1,
      "byteOffset": 54984,
      "componentType": 5126,
      "count": 497,
      "max": [
        1,
        1
      ],
      "min": [
        0,
        0
      ],
      "type": "VEC2"
    },
    {
      "bufferView": 0,
      "byteOffset": 104244,
      "componentType": 5125,
      "count": 1356,
      "max": [
        496
      ],
      "min": [
        0
      ],
      "type": "SCALAR"
    },
    {
      "bufferView": 2,
      "byteOffset": 177840,
      "componentType": 5126,
      "count": 569,
      "max": [
        5.0009899139404297,
        1,
        2.4130399227142334
      ],
      "min": [
        -1,
        -1,
        -0
      ],
      "type": "VEC3"
    },
    {
      "bufferView": 2,
      "byteOffset": 184668,
      "componentType": 5126,
      "count": 569,
      "max": [
        0.87548333406448364,
        0.97043120861053467,
        0.95516937971115112
      ],
      "min": [
        -0.72788256406784058,
        -0.97043120861053467,
        -0.95516937971115112
      ],
      "type": "VEC3"
    },
    {
      "bufferView": 1,
      "byteOffset": 58960,
      "componentType": 5126,
      "count": 569,
      "max": [
        1,
        1
      ],
      "min": [
        0,
        0
      ],
      "type": "VEC2"
    },
    {
      "bufferView": 0,
      "byteOffset": 109668,
      "componentType": 5125,
      "count": 1746,
      "max": [
        568
      ],
      "min": [
        0
      ],
      "type": "SCALAR"
    }
  ],
  "asset": {
    "extras": {
      "author": "rhcreations (https://sketchfab.com/rhcreations)",
      "license": "CC-BY-4.0 (http://creativecommons.org/licenses/by/4.0/)",
      "source": "https://sketchfab.com/3d-models/door-handles-c56b06bc3b174823b12d9bfcc3598723",
      "title": "Door Handles"
    },
    "generator": "Sketchfab-9.41.1",
    "version": "2.0"
  },
  "bufferViews": [
    {
      "buffer": 0,
      "byteLength": 116652,
      "byteOffset": 0,
      "name": "floatBufferViews",
      "target": 34963
    },
    {
      "buffer": 0,
      "byteLength": 63512,
      "byteOffset": 116652,
      "byteStride": 8,
      "name": "floatBufferViews",
      "target": 34962
    },
    {
      "buffer": 0,
      "byteLength": 191496,
      "byteOffset": 180164,
      "byteStride": 12,
      "name": "floatBufferViews",
      "target": 34962
    }
  ],
  "buffers": [
    {
      "byteLength": 371660,
      "uri": "scene.bin"
    }
  ],
  "extensionsRequired": [
    "KHR_materials_pbrSpecularGlossiness"
  ],
  "extensionsUsed": [
    "KHR_materials_pbrSpecularGlossiness"
  ],
  "materials": [
    {
      "doubleSided": true,
      "extensions": {
        "KHR_materials_pbrSpecularGlossiness": {
          "diffuseFactor": [
            0.27119792872178344,
            0.24571919064748798,
            0.24571919064748798,
            1
          ],
          "glossinessFactor": 0.94982078671455383,
          "specularFactor": [
            0.040281147807308328,
            0.040281147807308328,
            0.040281147807308328
          ]
        }
      },
      "name": "Stainless_Steel_Door_Handle_Material"
    },
    {
      "doubleSided": true,
      "extensions": {
        "KHR_materials_pbrSpecularGlossiness": {
          "diffuseFactor": [
            0.32061651769066518,
            0.32061651769066518,
            0.32061651769066518,
            1
          ],
          "glossinessFactor": 0.87455196678638458,
          "specularFactor": [
            0.25218435613270679,
            0.23753056484270096,
            0.23753056484270096
          ]
        }
      },
      "name": "Door_Handle_2_Stainless_Steel_Material"
    },
    {
      "doubleSided": true,
      "extensions": {
        "KHR_materials_pbrSpecularGlossiness": {
          "diffuseFactor": [
            0.23054449204933106,
            0.23054449204933106,
            0.23054449204933106,
            1
          ],
          "glossinessFactor": 0.90322580933570862,
          "specularFactor": [
            0.38638409712110955,
            0.38638409712110955,
            0.38638409712110955
          ]
        }
      },
      "name": "Material.001"
    },
    {
      "doubleSided": true,
      "extensions": {
        "KHR_materials_pbrSpecularGlossiness": {
          "diffuseFactor": [
            0,
            0,
            0,
            1
          ],
          "glossinessFactor": 0.91489361971616745,
          "specularFactor": [
            0.74095565233378957,
            0.34253159468975175,
            0.024664158200521931
          ]
        }
      },
      "name": "Door_Handle_4_Copper_Material"
    },
    {
      "doubleSided": true,
      "extensions": {
        "KHR_materials_pbrSpecularGlossiness": {
          "diffuseFactor": [
            0.34715108505344811,
            0.33045203021575242,
            0.33045203021575242,
            1
          ],
          "glossinessFactor": 0.92553191632032394,
          "specularFactor": [
            0.25730578540798066,
            0.25730578540798066,
            0.25730578540798066
          ]
        }
      },
      "name": "Door_Handle_5_Stainless_Steel_Material"
    },
    {
      "doubleSided": true,
      "extensions": {
        "KHR_materials_pbrSpecularGlossiness": {
          "diffuseFactor": [
            0.21588899378073065,
            0.20962220570209875,
            0.20962220570209875,
            1
          ],
          "glossinessFactor": 0.93617021292448044,
          "specularFactor": [
            0.61911364158176152,
            0.61911364158176152,
            0.61911364158176152
          ]
        }
      },
      "name": "Handle_6_Stainless_Steel_Material"
    },
    {
      "doubleSided": true,
      "extensions": {
        "KHR_materials_pbrSpecularGlossiness": {
          "diffuseFactor": [
            0.070306355599333556,
            0.070306355599333556,
            0.070306355599333556,
            1
          ],
          "glossinessFactor": 0.93617021292448044,
          "specularFactor": [
            0.061742853319989188,
            0.061742853319989188,
            0.061742853319989188
          ]
        }
      },
      "name": "Handle_6_Stainless_Steel_Material.001"
    },
    {
      "doubleSided": true,
      "extensions": {
        "KHR_materials_pbrSpecularGlossiness": {
          "diffuseFactor": [
            0.45304591961441881,
            0.39306732785101989,
            0.39306732785101989,
            1
          ],
          "glossinessFactor": 0.95035460963845253,
          "specularFactor": [
            0.14128611931021379,
            0.10901596374626198,
            0.10901596374626198
          ]
        }
      },
      "name": "Door_Lock_Stainless_Steel_Material"
    },
    {
      "doubleSided": true,
      "extensions": {
        "KHR_materials_pbrSpecularGlossiness": {
          "diffuseFactor": [
            0.11200710340685262,
            0.063751863608485129,
            0.010820898730819258,
            1
          ],
          "glossinessFactor": 0.895652174949646,
          "specularFactor": [
            0.40395232919355684,
            0.36726771203503455,
            0.0025170407141715833
          ]
        }
      },
      "name": "Metal_Handle"
    }
  ],
  "meshes": [
    {
      "name": "Ring Handle_0",
      "primitives": [
        {
          "attributes": {
            "NORMAL": 1,
            "POSITION": 0,
            "TEXCOORD_0": 2
          },
          "indices": 3,
          "material": 8,
          "mode": 4
        }
      ]
    },
    {
      "name": "Metal Handle_0",
      "primitives": [
        {
          "attributes": {
            "NORMAL": 5,
            "POSITION": 4
          },
          "indices": 6,
          "material": 1,
          "mode": 4
        }
      ]
    },
    {
      "name": "Lock_0",
      "primitives": [
        {
          "attributes": {
            "NORMAL": 8,
            "POSITION": 7,
            "TEXCOORD_0": 9
          },
          "indices": 10,
          "material": 7,
          "mode": 4
        }
      ]
    },
    {
      "name": "Door Handle 7_0",
      "primitives": [
        {
          "attributes": {
            "NORMAL": 12,
            "POSITION": 11,
            "TEXCOORD_0": 13
          },
          "indices": 14,
          "material": 6,
          "mode": 4
        }
      ]
    },
    {
      "name": "Door Handle 6_0",
      "primitives": [
        {
          "attributes": {
            "NORMAL": 16,
            "POSITION": 15,
            "TEXCOORD_0": 17
          },
          "indices": 18,
          "material": 5,
          "mode": 4
        }
      ]
    },
    {
      "name": "Door Handle 5_0",
      "primitives": [
        {
          "attributes": {
            "NORMAL": 20,
            "POSITION": 19,
            "TEXCOORD_0": 21
          },
          "indices": 22,
          "material": 4,
          "mode": 4
        }
      ]
    },
    {
      "name": "Door Handle 4_0",
      "primitives": [
        {
          "attributes": {
            "NORMAL": 24,
            "POSITION": 23,
            "TEXCOORD_0": 25
          },
          "indices": 26,
          "material": 3,
          "mode": 4
        }
      ]
    },
    {
      "name": "Door Handle 3_0",
      "primitives": [
        {
          "attributes": {
            "NORMAL": 28,
            "POSITION": 27,
            "TEXCOORD_0": 29
          },
          "indices": 30,
          "material": 2,
          "mode": 4
        }
      ]
    },
    {
      "name": "Door Handle 2_0",
      "primitives": [
        {
          "attributes": {
            "NORMAL": 32,
            "POSITION": 31,
            "TEXCOORD_0": 33
          },
          "indices": 34,
          "material": 1,
          "mode": 4
        }
      ]
    },
    {
      "name": "Door Handle 1_0",
      "primitives": [
        {
          "attributes": {
            "NORMAL": 36,
            "POSITION": 35,
            "TEXCOORD_0": 37
          },
          "indices": 38,
          "material": 0,
          "mode": 4
        }
      ]
    }
  ],
  "nodes": [
    {
      "children": [
        1
      ],
      "name": "RootNode (gltf orientation matrix)",
      "rotation": [
        -0.70710678118654746,
        -0,
        -0,
        0.70710678118654757
      ]
    },
    {
      "children": [
        2
      ],
      "name": "RootNode (model correction matrix)"
    },
    {
      "children": [
        3,
        5,
        7,
        9,
        11,
        13,
        15,
        17,
        19,
        21
      ],
      "name": "Root"
    },
    {
      "children": [
        4
      ],
      "matrix": [
        6.8193000000000001,
        0,
        0,
        0,
        0,
        2.5506899999999999,
        0,
        0,
        0,
        0,
        4.1448299999999989,
        0,
        19.340399999999999,
        6.6120099999999988,
        0,
        1
      ],
      "name": "Ring Handle"
    },
    {
      "mesh": 0,
      "name": "Ring Handle_0"
    },
    {
      "children": [
        6
      ],
      "matrix": [
        5.4617200000000006,
        0,
        0,
        0,
        0,
        1.82057,
        0,
        0,
        0,
        0,
        3.6411500000000001,
        0,
        9.96462,
        5.5113000000000003,
        0,
        1
      ],
      "name": "Metal Handle"
    },
    {
      "mesh": 1,
      "name": "Metal Handle_0"
    },
    {
      "children": [
        8
      ],
      "matrix": [
        1.9947199999999998,
        0,
        0,
        0,
        0,
        -0,
        1.9947199999999998,
        0,
        0,
        -1.9947199999999998,
        -0,
        0,
        1.5322,
        4.7114799999999999,
        0,
        1
      ],
      "name": "Lock"
    },
    {
      "mesh": 2,
      "name": "Lock_0"
    },
    {
      "children": [
        10
      ],
      "matrix": [
        0,
        0,
        -0.93495000000000006,
        0,
        0.93495000000000006,
        0,
        0,
        0,
        0,
        -0.93495000000000006,
        0,
        0,
        -9.6664200000000005,
        8.7654700000000005,
        0,
        1
      ],
      "name": "Door Handle 7"
    },
    {
      "mesh": 3,
      "name": "Door Handle 7_0"
    },
    {
      "children": [
        12
      ],
      "matrix": [
        0.58381000000000005,
        0,
        0,
        0,
        0,
        -0,
        0.58381000000000005,
        0,
        0,
        -0.58381000000000005,
        -0,
        0,
        -20.172529999999998,
        4.9353200000000008,
        0,
        1
      ],
      "name": "Door Handle 6"
    },
    {
      "mesh": 4,
      "name": "Door Handle 6_0"
    },
    {
      "children": [
        14
      ],
      "matrix": [
        1.1991500000000002,
        0,
        0,
        0,
        0,
        -0,
        1.1991500000000002,
        0,
        0,
        -0.088760000000000033,
        -0,
        0,
        17.232469999999999,
        -3.1171700000000002,
        0,
        1
      ],
      "name": "Door Handle 5"
    },
    {
      "mesh": 5,
      "name": "Door Handle 5_0"
    },
    {
      "children": [
        16
      ],
      "matrix": [
        0.6527900000000002,
        0,
        0,
        0,
        0,
        0.52789000000000008,
        0,
        0,
        0,
        0,
        3.06969,
        0,
        10.01376,
        -3.1171700000000002,
        0,
        1
      ],
      "name": "Door Handle 4"
    },
    {
      "mesh": 6,
      "name": "Door Handle 4_0"
    },
    {
      "children": [
        18
      ],
      "matrix": [
        2.1250499999999999,
        0,
        0,
        0,
        0,
        -0,
        2.1250499999999999,
        0,
        0,
        0.22551000000000004,
        0,
        0,
        2.7644200000000003,
        -3.1171700000000002,
        0,
        1
      ],
      "name": "Door Handle 3"
    },
    {
      "mesh": 7,
      "name": "Door Handle 3_0"
    },
    {
      "children": [
        20
      ],
      "matrix": [
        1.3535699999999999,
        0,
        0,
        0,
        0,
        0.49711000000000005,
        0,
        0,
        0,
        0,
        4.4529799999999993,
        0,
        -11.899660000000001,
        -3.1171700000000002,
        0,
        1
      ],
      "name": "Door Handle 2"
    },
    {
      "mesh": 8,
      "name": "Door Handle 2_0"
    },
    {
      "children": [
        22
      ],
      "matrix": [
        1.5588599999999999,
        0,
        0,
        0,
        0,
        -0,
        1.5588599999999999,
        0,
        0,
        -1.5588599999999999,
        -0,
        0,
        -23.758389999999999,
        -3.1171700000000002,
        0,
        1
      ],
      "name": "Door Handle 1"
    },
    {
      "mesh": 9,
      "name": "Door Handle 1_0"
    }
  ],
  "scene": 0,
  "scenes": [
    {
      "name": "OSG_Scene",
      "nodes": [
        0
      ]
    }
  ]
}

